<svg width="32" height="32" viewBox="0 0 32 32" fill="none" xmlns="http://www.w3.org/2000/svg">
<g clip-path="url(#clip0_1_30)">
<path d="M31.6593 16C31.6593 24.8889 24.5267 32 15.8923 32C7.25806 32 0.000244141 24.8889 0.000244141 16C0.000244141 7.11112 7.13292 0 15.7672 0C24.4015 0 31.6593 7.11112 31.6593 16Z" fill="url(#paint0_linear_1_30)"/>
<path d="M4.67003 17.0691C4.67614 17.0162 4.71365 16.979 4.76091 16.979C4.80646 16.979 4.8442 17.0162 4.85127 17.0688L5.0476 18.3458L4.85127 19.6011C4.84397 19.6537 4.80669 19.6903 4.76091 19.6903C4.71362 19.6903 4.67614 19.6534 4.67003 19.6006L4.50439 18.3458L4.67003 17.0691Z" fill="white"/>
<path d="M5.59841 16.1887C5.64615 16.1887 5.68488 16.2266 5.69268 16.2814L5.94575 18.3457L5.69243 20.3648C5.68465 20.4195 5.6459 20.4575 5.59841 20.4575C5.55019 20.4575 5.51048 20.4184 5.50414 20.3643L5.28149 18.3457L5.50414 16.2814C5.51071 16.2278 5.55042 16.1887 5.59841 16.1887Z" fill="white"/>
<path d="M9.03029 14.5498C9.03466 14.4534 9.11025 14.3774 9.2016 14.3774C9.29241 14.3774 9.36766 14.4534 9.37308 14.5498L9.57352 18.3476L9.37308 20.8022V20.8015C9.36774 20.8977 9.29241 20.9736 9.2016 20.9736C9.11025 20.9736 9.03492 20.8979 9.03029 20.802L8.85303 18.3476L9.03029 14.5498Z" fill="white"/>
<path d="M7.25224 15.8302C7.25786 15.7543 7.3151 15.6975 7.38525 15.6975C7.45467 15.6975 7.51191 15.7543 7.51802 15.8297L7.74504 18.3466L7.51802 20.7812C7.51191 20.8566 7.45467 20.9135 7.38525 20.9135C7.31508 20.9135 7.25759 20.8566 7.25224 20.7812L7.05249 18.3466L7.25224 15.8302Z" fill="white"/>
<path d="M11.2565 20.762C11.2519 20.8807 11.1598 20.9734 11.0466 20.9734C10.9325 20.9734 10.8402 20.8804 10.8366 20.7628L10.6824 18.3486L10.8366 13.2929C10.8403 13.1742 10.9326 13.0813 11.0468 13.0813C11.1601 13.0813 11.2522 13.174 11.2568 13.2926L11.4305 18.3489L11.2565 20.762Z" fill="white"/>
<path d="M15.1123 20.6943C15.1094 20.8544 14.9808 20.9847 14.8249 20.9847C14.6689 20.9847 14.5399 20.8544 14.5374 20.6957C14.5374 20.6957 14.429 18.3521 14.429 18.3484L14.5374 12.5109C14.5398 12.3505 14.6687 12.2202 14.8249 12.2202C14.9808 12.2202 15.1096 12.3508 15.1123 12.5107L15.2336 18.3503L15.1123 20.6943Z" fill="white"/>
<path d="M13.1702 20.724C13.1665 20.8649 13.0571 20.9754 12.9214 20.9754C12.7848 20.9754 12.6755 20.8649 12.6725 20.7255L12.541 18.3495L12.6723 13.2563C12.6752 13.1154 12.7846 13.0051 12.9213 13.0051C13.0569 13.0051 13.1662 13.1154 13.1699 13.2563L13.3178 18.3492L13.1702 20.7257V20.724Z" fill="white"/>
<path d="M8.44204 20.8011C8.43592 20.8874 8.37065 20.9529 8.28998 20.9529C8.20818 20.9529 8.14317 20.8874 8.13775 20.8008L7.94946 18.3462L8.13775 16.012C8.14291 15.9252 8.20818 15.8596 8.28998 15.8596C8.37091 15.8596 8.43618 15.9247 8.44204 16.0109L8.65588 18.3462L8.44204 20.8011Z" fill="white"/>
<path d="M6.60156 20.7063C6.59474 20.7716 6.54699 20.8188 6.48806 20.8188C6.42812 20.8188 6.38037 20.7713 6.37452 20.7059L6.16309 18.3461L6.37452 15.8969C6.38061 15.8317 6.42834 15.7842 6.48804 15.7842C6.54698 15.7842 6.59472 15.8315 6.60179 15.8969L6.84174 18.3461L6.60156 20.7063Z" fill="white"/>
<path d="M13.6007 13.4426C13.6037 13.2903 13.7218 13.1714 13.8692 13.1714C14.0163 13.1714 14.1337 13.2903 14.1371 13.4421L14.2716 18.3499L14.1371 20.7111V20.7091C14.1337 20.8613 14.0163 20.98 13.8692 20.98C13.7216 20.98 13.6037 20.8611 13.6007 20.7108L13.481 18.3497L13.6007 13.4426Z" fill="white"/>
<path d="M10.3115 20.7864C10.3066 20.8939 10.2226 20.9783 10.1208 20.9783C10.018 20.9783 9.93416 20.8939 9.93004 20.7874L9.76416 18.3484L9.92978 13.6818C9.93424 13.5743 10.018 13.49 10.1208 13.49C10.2226 13.49 10.3064 13.574 10.3115 13.6818L10.4986 18.3484L10.3115 20.7864Z" fill="white"/>
<path d="M12.2098 20.7477V20.7474C12.2054 20.8763 12.1051 20.9776 11.9806 20.9776C11.8557 20.9776 11.7548 20.8759 11.7514 20.7475L11.6084 18.3484L11.7512 13.122C11.7545 12.992 11.8554 12.8904 11.9806 12.8904C12.1051 12.8904 12.2059 12.9922 12.2098 13.122L12.3706 18.3487L12.2098 20.7464V20.7474C12.2098 20.7471 12.2098 20.7469 12.2098 20.7467V20.7477Z" fill="white"/>
<path d="M23.2915 15.5558C23.6233 15.4147 23.9875 15.3364 24.3692 15.3364C25.9077 15.3364 27.1549 16.6024 27.1549 18.164C27.1549 19.7255 25.9075 20.9914 24.369 20.9914C24.3192 20.9914 16.6534 20.9875 16.6463 20.9867C16.4799 20.9696 16.3477 20.8255 16.3455 20.6525V11.6794C16.3475 11.5145 16.4035 11.4295 16.6137 11.3469C17.1547 11.1346 17.7674 11.009 18.3958 11.009C20.9643 11.009 23.0698 13.0078 23.2915 15.5558Z" fill="white"/>
<path d="M15.4687 11.982C15.4712 11.8108 15.6086 11.6714 15.7759 11.6714C15.9428 11.6714 16.0801 11.8108 16.0826 11.9816L16.2192 18.351L16.0826 20.6628V20.66C16.0801 20.8314 15.9428 20.9705 15.7759 20.9705C15.6086 20.9705 15.4712 20.8314 15.469 20.6625L15.343 18.351L15.4687 11.982Z" fill="white"/>
</g>
<defs>
<linearGradient id="paint0_linear_1_30" x1="15.8298" y1="0" x2="15.8298" y2="32" gradientUnits="userSpaceOnUse">
<stop stop-color="#FF7602"/>
<stop offset="1" stop-color="#FF3502"/>
</linearGradient>
<clipPath id="clip0_1_30">
<rect width="32" height="32" fill="white"/>
</clipPath>
</defs>
</svg>
