<svg width="160" height="33" viewBox="0 0 160 33" fill="none" xmlns="http://www.w3.org/2000/svg">
<path d="M12.475 25.4201C10.0017 25.4201 7.87834 24.8951 6.10501 23.8451C4.33168 22.7718 2.96668 21.2901 2.01001 19.4001C1.05334 17.4868 0.575012 15.2818 0.575012 12.7851C0.575012 10.2884 1.05334 8.08341 2.01001 6.17008C2.96668 4.25675 4.33168 2.76341 6.10501 1.69008C7.87834 0.616745 10.0017 0.0800781 12.475 0.0800781C15.415 0.0800781 17.8183 0.815078 19.685 2.28508C21.575 3.73175 22.7533 5.77341 23.22 8.41008H18.285C17.9817 7.08008 17.3283 6.04175 16.325 5.29508C15.345 4.52508 14.0383 4.14008 12.405 4.14008C10.1417 4.14008 8.36834 4.91008 7.08501 6.45008C5.80168 7.99008 5.16001 10.1018 5.16001 12.7851C5.16001 15.4684 5.80168 17.5801 7.08501 19.1201C8.36834 20.6368 10.1417 21.3951 12.405 21.3951C14.0383 21.3951 15.345 21.0451 16.325 20.3451C17.3283 19.6218 17.9817 18.6301 18.285 17.3701H23.22C22.7533 19.8901 21.575 21.8618 19.685 23.2851C17.8183 24.7084 15.415 25.4201 12.475 25.4201ZM32.3657 25.4201C30.8723 25.4201 29.6473 25.1868 28.6907 24.7201C27.734 24.2301 27.0223 23.5884 26.5557 22.7951C26.089 22.0018 25.8557 21.1268 25.8557 20.1701C25.8557 18.5601 26.4857 17.2534 27.7457 16.2501C29.0057 15.2468 30.8957 14.7451 33.4157 14.7451H37.8257V14.3251C37.8257 13.1351 37.4873 12.2601 36.8107 11.7001C36.134 11.1401 35.294 10.8601 34.2907 10.8601C33.3807 10.8601 32.5873 11.0818 31.9107 11.5251C31.234 11.9451 30.814 12.5751 30.6507 13.4151H26.2757C26.3923 12.1551 26.8123 11.0584 27.5357 10.1251C28.2823 9.19175 29.239 8.48008 30.4057 7.99008C31.5723 7.47675 32.879 7.22008 34.3257 7.22008C36.799 7.22008 38.7473 7.83841 40.1707 9.07508C41.594 10.3118 42.3057 12.0618 42.3057 14.3251V25.0001H38.4907L38.0707 22.2001C37.5573 23.1334 36.834 23.9034 35.9007 24.5101C34.9907 25.1168 33.8123 25.4201 32.3657 25.4201ZM33.3807 21.9201C34.664 21.9201 35.6557 21.5001 36.3557 20.6601C37.079 19.8201 37.534 18.7818 37.7207 17.5451H33.9057C32.7157 17.5451 31.864 17.7668 31.3507 18.2101C30.8373 18.6301 30.5807 19.1551 30.5807 19.7851C30.5807 20.4618 30.8373 20.9868 31.3507 21.3601C31.864 21.7334 32.5407 21.9201 33.3807 21.9201ZM53.0559 25.4201C51.5159 25.4201 50.1625 25.1751 48.9959 24.6851C47.8292 24.1718 46.8959 23.4718 46.1959 22.5851C45.4959 21.6984 45.0759 20.6718 44.9359 19.5051H49.4509C49.5909 20.1818 49.9642 20.7651 50.5709 21.2551C51.2009 21.7218 52.0059 21.9551 52.9859 21.9551C53.9659 21.9551 54.6775 21.7568 55.1209 21.3601C55.5875 20.9634 55.8209 20.5084 55.8209 19.9951C55.8209 19.2484 55.4942 18.7468 54.8409 18.4901C54.1875 18.2101 53.2775 17.9418 52.1109 17.6851C51.3642 17.5218 50.6059 17.3234 49.8359 17.0901C49.0659 16.8568 48.3542 16.5651 47.7009 16.2151C47.0709 15.8418 46.5575 15.3751 46.1609 14.8151C45.7642 14.2318 45.5659 13.5201 45.5659 12.6801C45.5659 11.1401 46.1725 9.84508 47.3859 8.79508C48.6225 7.74508 50.3492 7.22008 52.5659 7.22008C54.6192 7.22008 56.2525 7.69841 57.4659 8.65508C58.7025 9.61175 59.4375 10.9301 59.6709 12.6101H55.4359C55.1792 11.3268 54.2109 10.6851 52.5309 10.6851C51.6909 10.6851 51.0375 10.8484 50.5709 11.1751C50.1275 11.5018 49.9059 11.9101 49.9059 12.4001C49.9059 12.9134 50.2442 13.3218 50.9209 13.6251C51.5975 13.9284 52.4959 14.2084 53.6159 14.4651C54.8292 14.7451 55.9375 15.0601 56.9409 15.4101C57.9675 15.7368 58.7842 16.2384 59.3909 16.9151C59.9975 17.5684 60.3009 18.5134 60.3009 19.7501C60.3242 20.8234 60.0442 21.7918 59.4609 22.6551C58.8775 23.5184 58.0375 24.1951 56.9409 24.6851C55.8442 25.1751 54.5492 25.4201 53.0559 25.4201ZM70.7577 25.0001C68.9377 25.0001 67.4793 24.5568 66.3827 23.6701C65.286 22.7834 64.7377 21.2084 64.7377 18.9451V11.3851H61.7627V7.64008H64.7377L65.2627 2.98508H69.2177V7.64008H73.9077V11.3851H69.2177V18.9801C69.2177 19.8201 69.3927 20.4034 69.7427 20.7301C70.116 21.0334 70.746 21.1851 71.6327 21.1851H73.8027V25.0001H70.7577ZM83.0391 25.4201C81.5458 25.4201 80.3208 25.1868 79.3641 24.7201C78.4074 24.2301 77.6958 23.5884 77.2291 22.7951C76.7624 22.0018 76.5291 21.1268 76.5291 20.1701C76.5291 18.5601 77.1591 17.2534 78.4191 16.2501C79.6791 15.2468 81.5691 14.7451 84.0891 14.7451H88.4991V14.3251C88.4991 13.1351 88.1608 12.2601 87.4841 11.7001C86.8074 11.1401 85.9674 10.8601 84.9641 10.8601C84.0541 10.8601 83.2608 11.0818 82.5841 11.5251C81.9074 11.9451 81.4874 12.5751 81.3241 13.4151H76.9491C77.0658 12.1551 77.4858 11.0584 78.2091 10.1251C78.9558 9.19175 79.9124 8.48008 81.0791 7.99008C82.2458 7.47675 83.5524 7.22008 84.9991 7.22008C87.4724 7.22008 89.4208 7.83841 90.8441 9.07508C92.2674 10.3118 92.9791 12.0618 92.9791 14.3251V25.0001H89.1641L88.7441 22.2001C88.2308 23.1334 87.5074 23.9034 86.5741 24.5101C85.6641 25.1168 84.4858 25.4201 83.0391 25.4201ZM84.0541 21.9201C85.3374 21.9201 86.3291 21.5001 87.0291 20.6601C87.7524 19.8201 88.2074 18.7818 88.3941 17.5451H84.5791C83.3891 17.5451 82.5374 17.7668 82.0241 18.2101C81.5108 18.6301 81.2541 19.1551 81.2541 19.7851C81.2541 20.4618 81.5108 20.9868 82.0241 21.3601C82.5374 21.7334 83.2141 21.9201 84.0541 21.9201ZM99.7784 25.0001L94.7034 7.64008H99.1484L102.158 20.1351L105.658 7.64008H110.628L114.128 20.1351L117.173 7.64008H121.618L116.508 25.0001H111.853L108.143 12.0151L104.433 25.0001H99.7784ZM128.841 25.4201C127.348 25.4201 126.123 25.1868 125.166 24.7201C124.21 24.2301 123.498 23.5884 123.031 22.7951C122.565 22.0018 122.331 21.1268 122.331 20.1701C122.331 18.5601 122.961 17.2534 124.221 16.2501C125.481 15.2468 127.371 14.7451 129.891 14.7451H134.301V14.3251C134.301 13.1351 133.963 12.2601 133.286 11.7001C132.61 11.1401 131.77 10.8601 130.766 10.8601C129.856 10.8601 129.063 11.0818 128.386 11.5251C127.71 11.9451 127.29 12.5751 127.126 13.4151H122.751C122.868 12.1551 123.288 11.0584 124.011 10.1251C124.758 9.19175 125.715 8.48008 126.881 7.99008C128.048 7.47675 129.355 7.22008 130.801 7.22008C133.275 7.22008 135.223 7.83841 136.646 9.07508C138.07 10.3118 138.781 12.0618 138.781 14.3251V25.0001H134.966L134.546 22.2001C134.033 23.1334 133.31 23.9034 132.376 24.5101C131.466 25.1168 130.288 25.4201 128.841 25.4201ZM129.856 21.9201C131.14 21.9201 132.131 21.5001 132.831 20.6601C133.555 19.8201 134.01 18.7818 134.196 17.5451H130.381C129.191 17.5451 128.34 17.7668 127.826 18.2101C127.313 18.6301 127.056 19.1551 127.056 19.7851C127.056 20.4618 127.313 20.9868 127.826 21.3601C128.34 21.7334 129.016 21.9201 129.856 21.9201ZM143.945 32.7001L147.97 23.8451H146.92L140.165 7.64008H145.03L149.895 19.8551L154.97 7.64008H159.73L148.705 32.7001H143.945Z" fill="white"/>
</svg>
