<svg width="24" height="24" viewBox="0 0 24 24" fill="none" xmlns="http://www.w3.org/2000/svg">
<path d="M23 3.00004C22.0424 3.67552 20.9821 4.19215 19.86 4.53005C19.2577 3.83756 18.4573 3.34674 17.567 3.12397C16.6767 2.90121 15.7395 2.95724 14.8821 3.2845C14.0247 3.61176 13.2884 4.19445 12.773 4.95376C12.2575 5.71308 11.9877 6.61238 12 7.53004V8.53004C10.2426 8.57561 8.50127 8.18586 6.93101 7.39549C5.36074 6.60512 4.01032 5.43868 3 4.00004C3 4.00004 -1 13.0001 8 17.0001C5.94053 18.3981 3.48716 19.099 1 19.0001C10 24.0001 21 19.0001 21 7.50004C21 7.22004 20.97 6.94005 20.92 6.67005C21.9406 5.66354 22.6608 4.39276 23 3.00004Z" stroke="white" stroke-width="2" stroke-linecap="round" stroke-linejoin="round"/>
</svg>
